<svg width="229" height="39" viewBox="0 0 229 39" fill="none" xmlns="http://www.w3.org/2000/svg">
    <path d="M61.5032 16.1166L58.9455 17.7286C58.0032 18.3226 56.8037 18.3226 55.8612 17.7286L54.4443 16.8356L50.7439 14.503L45.2905 11.0656L39.6435 7.50634C39.4316 7.37278 39.1617 7.37278 38.9496 7.50634L38.4108 7.84602L37.5868 8.36521L36.5786 9.00088L29.6795 4.65208L32.3975 2.93887L33.8646 2.01423L35.1804 1.18474L36.6627 0.250303C36.7116 0.219424 36.7646 0.195573 36.8198 0.17825C37.1906 0.0625131 37.5851 0 37.994 0C38.4557 0 38.8991 0.0793339 39.3106 0.2257C39.3543 0.241265 39.3957 0.262103 39.4348 0.286707L40.7185 1.09586L44.9192 3.74351L50.9129 7.52141L56.3664 10.9591L60.0667 13.2914L61.5032 14.197C62.2092 14.6424 62.2092 15.6717 61.5032 16.1166Z" fill="url(#paint0_linear_2848_11115)"/>
    <path d="M48.6423 27.6799C49.9142 26.8782 49.9142 25.0239 48.6423 24.2223L45.6834 22.3572L43.5303 21C43.5891 21.2563 43.6202 21.5232 43.6202 21.7974C43.6202 21.8247 43.6199 21.8521 43.6192 21.8795C43.5936 23.0165 42.9815 24.0601 42.0192 24.6667L41.259 25.146L38.3372 26.9877L36.0817 28.4092L31.3591 31.3827C31.0746 31.5617 30.7784 31.7216 30.4698 31.8542C29.5683 32.2413 28.5749 32.4557 27.5315 32.4557C27.2287 32.4557 26.8672 32.4055 26.4946 32.3304C25.2534 32.0799 24.0714 31.5948 23.0002 30.9195L9.65699 22.5088C8.66381 21.8827 7.56318 21.4419 6.40907 21.2267C6.07316 21.1642 5.74754 21.1225 5.47615 21.1225C5.43999 21.1225 5.40384 21.1228 5.36769 21.1233C4.13324 21.1413 2.92968 21.5127 1.88528 22.1709L-0.000152588 23.3594L0.15249 23.4556L22.0333 37.2479C22.9419 37.8205 23.9188 38.278 24.9431 38.6006C25.1675 38.6711 25.3812 38.7311 25.5629 38.7698C26.28 38.9224 27.0238 39.0028 27.7863 39.0028C27.83 39.0028 27.8734 39.0025 27.9169 39.002C29.7782 38.9797 31.5946 38.4258 33.1692 37.4334L48.6423 27.6799Z" fill="url(#paint1_linear_2848_11115)"/>
    <path d="M19.9345 1.40136L2.66154 12.2889C2.1647 12.602 2.1647 13.3263 2.66154 13.6394L21.8265 25.7192C23.4385 26.7352 25.2976 27.3031 27.2028 27.327C27.2483 27.3275 27.294 27.3277 27.3397 27.3277C27.3851 27.3277 27.4303 27.3275 27.4757 27.327C29.4407 27.3026 31.3581 26.7172 33.0206 25.6692L42.7929 19.5093C44.5162 18.423 44.5162 15.9104 42.7929 14.8244L21.4968 1.40136C21.0196 1.10059 20.412 1.10059 19.9345 1.40136ZM11.0862 12.6464L20.6879 6.59446L32.8318 14.2487C33.4865 14.6614 33.9889 15.2813 34.2372 16.0144C34.309 16.2263 34.3567 16.4366 34.3567 16.6204C34.3567 16.7505 34.3323 16.8968 34.2934 17.0482C34.1054 17.78 33.6344 18.4072 32.9952 18.8101L31.9696 19.4566C30.5534 20.3491 28.9206 20.8482 27.2468 20.869C27.2016 20.8695 27.1561 20.8698 27.1109 20.8698C27.0635 20.8698 27.0163 20.8695 26.9688 20.8688C25.0528 20.8437 23.1837 20.2713 21.5626 19.2495L11.0862 12.6464Z" fill="url(#paint2_linear_2848_11115)"/>
    <path d="M197.242 21.9109V11.696H194.141V7.8009H197.242V5.41611H202.17V7.8009H204.118V11.696H202.17V16.3861H205.072L202.17 22.4276V30.3371C202.17 30.867 202.077 31.3572 201.892 31.8077C201.706 32.2582 201.455 32.6556 201.137 33.0001C200.845 33.3181 200.487 33.583 200.064 33.795C199.666 33.9805 199.229 34.0732 198.752 34.0732H194.459L195.373 31.291H196.089C196.407 31.291 196.672 31.1718 196.884 30.9333C197.122 30.6948 197.242 30.4033 197.242 30.0589V28.469H194.102L197.242 21.9109ZM222.838 21.1557V23.5007H223.554H225.382H228.641V30.0589C228.641 30.5888 228.535 31.079 228.323 31.5295C228.138 31.9799 227.873 32.3774 227.528 32.7219C227.21 33.0398 226.813 33.3048 226.336 33.5168C225.885 33.7023 225.408 33.795 224.905 33.795H217.035H216.36H211.987V23.5007H214.412H217.035H218.029V21.1557H211.868V18.0952H218.029V16.5053H222.838V18.0952H228.999V21.1557H222.838ZM223.554 26.2035H217.035V31.0525H222.321C222.666 31.0525 222.957 30.9333 223.196 30.6948C223.434 30.4563 223.554 30.1648 223.554 29.8204V26.2035ZM209.324 33.9937H204.475L205.469 30.0589V5.29688H228.999V12.0935C228.999 13.1534 228.707 13.9483 228.124 14.4783C227.568 15.0082 226.786 15.2732 225.779 15.2732H210.557V29.8204L209.324 33.9937ZM210.517 11.8153H223.355C223.62 11.8153 223.779 11.7755 223.832 11.696C223.911 11.5901 223.951 11.4311 223.951 11.2191V8.11887H210.517V11.8153Z" fill="url(#paint3_linear_2848_11115)"/>
    <path d="M154.992 9.31057H156.662L155.827 6.05137H160.875L161.709 9.31057H162.623V5.33594H168.069V9.31057H168.983L169.818 6.05137H174.865L174.031 9.31057H175.7V12.9275H168.069V19.1279H162.623V12.9275H154.992V9.31057ZM154.992 19.1279L156.344 13.9212H160.914L159.563 19.1279H154.992ZM169.778 13.9212H174.349L175.7 19.1279H171.129L169.778 13.9212ZM154.992 30.5749C156.052 30.4424 157.191 30.2834 158.41 30.0979C158.066 29.9654 157.721 29.8329 157.377 29.7005C157.032 29.5415 156.675 29.3825 156.304 29.2235V25.7656V24.9706H154.992V21.3537H156.304V20.1216H161.113V21.3537H169.579V20.1216H174.388V21.3537H175.7V24.9706H174.388V25.7656V29.2235C174.017 29.3825 173.66 29.5415 173.315 29.7005C172.971 29.8329 172.626 29.9654 172.282 30.0979C173.501 30.2834 174.64 30.4424 175.7 30.5749V33.9931C173.686 33.8341 171.871 33.6486 170.255 33.4366C168.665 33.1981 167.035 32.8537 165.366 32.4032C163.67 32.8537 162.014 33.1981 160.398 33.4366C158.808 33.6486 157.006 33.8341 154.992 33.9931V30.5749ZM161.113 27.1964C161.829 27.4879 162.544 27.7396 163.259 27.9516C163.975 28.1636 164.677 28.3756 165.366 28.5876C166.055 28.3756 166.744 28.1636 167.433 27.9516C168.148 27.7396 168.864 27.4879 169.579 27.1964V24.9706H161.113V27.1964ZM189.889 12.6095C189.889 15.1003 189.558 17.3393 188.896 19.3267C188.26 21.2875 187.372 23.0761 186.233 24.6924C186.789 25.2224 187.372 25.7523 187.982 26.2823C188.591 26.7857 189.227 27.3157 189.889 27.8721V33.8341C188.671 32.9862 187.478 32.1117 186.312 31.2108C185.173 30.3099 184.1 29.356 183.093 28.3491C182.086 29.356 181.013 30.3099 179.873 31.2108C178.734 32.1117 177.555 32.9862 176.336 33.8341V27.8721C176.998 27.3157 177.634 26.7857 178.244 26.2823C178.853 25.7523 179.436 25.2224 179.993 24.6924C178.986 23.2085 178.164 21.5922 177.528 19.8434C176.892 18.0945 176.508 16.1204 176.376 13.9212H180.907C181.013 15.4845 181.251 16.8491 181.622 18.015C182.02 19.1544 182.523 20.2143 183.133 21.1947C183.875 20.0818 184.444 18.8497 184.842 17.4983C185.266 16.1204 185.478 14.4908 185.478 12.6095H183.61H176.415L178.8 5.33594H184.365L183.292 8.71438H189.889V12.6095Z" fill="url(#paint4_linear_2848_11115)"/>
    <path d="M145.563 7.76183H150.77V11.657H145.365V15.2341H150.77V19.1293H145.365V22.7462H150.77V26.6414H145.365V30.2185H150.77V34.1137H134.514V30.2185H140.039V26.6414H134.514V22.7462H140.039V19.1293H134.514V15.2341H140.039V11.657H134.514V7.96057L132.606 11.7365H133.361V34.1137H128.194V13.2468H126.406L130.261 5.57578H135.706L134.633 7.76183H139.999L139.005 5.57578H144.61L145.563 7.76183ZM127.002 5.25781L123.147 15.0752H124.061H126.843L123.147 24.9323H127.36V28.5492H115.992L119.848 18.6921H115.992L121.278 5.25781H127.002ZM115.992 30.457H127.36V34.0739H115.992V30.457Z" fill="url(#paint5_linear_2848_11115)"/>
    <path d="M111.778 33.9526H77V29.8588H82.6837L84.83 19.6042H78.5899V15.5103H85.6647L86.9366 9.46887H77.6757V5.375H111.102V9.46887H92.2626L91.0305 15.5103H105.657C106.479 15.5103 107.181 15.8018 107.764 16.3847C108.347 16.9677 108.638 17.6699 108.638 18.4913V19.6042V29.8588H111.778V33.9526ZM88.0495 29.8588H103.272V20.4389C103.272 20.2269 103.193 20.0414 103.034 19.8824C102.875 19.6969 102.676 19.6042 102.438 19.6042H90.156L88.0495 29.8588Z" fill="url(#paint6_linear_2848_11115)"/>
    <defs>
        <linearGradient id="paint0_linear_2848_11115" x1="45.8561" y1="0" x2="45.8561" y2="21.8273" gradientUnits="userSpaceOnUse">
            <stop stop-color="#58AFFF"/>
            <stop offset="0.686667" stop-color="#5670FF"/>
            <stop offset="1" stop-color="#A670FF"/>
        </linearGradient>
        <linearGradient id="paint1_linear_2848_11115" x1="24.798" y1="21" x2="24.798" y2="42.6215" gradientUnits="userSpaceOnUse">
            <stop stop-color="#58AFFF"/>
            <stop offset="0.686667" stop-color="#5670FF"/>
            <stop offset="1" stop-color="#A670FF"/>
        </linearGradient>
        <linearGradient id="paint2_linear_2848_11115" x1="23.1871" y1="1.17578" x2="23.1871" y2="32.5846" gradientUnits="userSpaceOnUse">
            <stop stop-color="#58AFFF"/>
            <stop offset="0.686667" stop-color="#5670FF"/>
            <stop offset="1" stop-color="#A670FF"/>
        </linearGradient>
        <linearGradient id="paint3_linear_2848_11115" x1="211.55" y1="5.29688" x2="211.55" y2="39.8576" gradientUnits="userSpaceOnUse">
            <stop stop-color="#58AFFF"/>
            <stop offset="0.686667" stop-color="#5670FF"/>
            <stop offset="1" stop-color="#A670FF"/>
        </linearGradient>
        <linearGradient id="paint4_linear_2848_11115" x1="172.441" y1="5.33594" x2="172.441" y2="39.7535" gradientUnits="userSpaceOnUse">
            <stop stop-color="#58AFFF"/>
            <stop offset="0.686667" stop-color="#5670FF"/>
            <stop offset="1" stop-color="#A670FF"/>
        </linearGradient>
        <linearGradient id="paint5_linear_2848_11115" x1="133.381" y1="5.25781" x2="133.381" y2="39.914" gradientUnits="userSpaceOnUse">
            <stop stop-color="#58AFFF"/>
            <stop offset="0.686667" stop-color="#5670FF"/>
            <stop offset="1" stop-color="#A670FF"/>
        </linearGradient>
        <linearGradient id="paint6_linear_2848_11115" x1="94.389" y1="5.375" x2="94.389" y2="39.6971" gradientUnits="userSpaceOnUse">
            <stop stop-color="#58AFFF"/>
            <stop offset="0.686667" stop-color="#5670FF"/>
            <stop offset="1" stop-color="#A670FF"/>
        </linearGradient>
    </defs>
</svg>
